<?xml version="1.0" standalone="no"?><!DOCTYPE svg PUBLIC "-//W3C//DTD SVG 1.1//EN" "http://www.w3.org/Graphics/SVG/1.1/DTD/svg11.dtd"><svg t="1582608820107" class="icon" viewBox="0 0 1024 1024" version="1.1" xmlns="http://www.w3.org/2000/svg" p-id="4065" xmlns:xlink="http://www.w3.org/1999/xlink" width="32" height="32"><defs><style type="text/css"></style></defs><path d="M897.8 411.5C877.6 216.2 712.6 64 512 64c-3.2 0-6.5 0-9.7 0.1-1.1 0-2.1 0.1-3.2 0.1-2.2 0.1-4.3 0.1-6.5 0.2-1.3 0.1-2.5 0.2-3.8 0.2-1.9 0.1-3.9 0.2-5.8 0.4-1.4 0.1-2.7 0.2-4.1 0.3-1.8 0.2-3.7 0.3-5.5 0.5-1.4 0.1-2.8 0.3-4.2 0.4-1.8 0.2-3.5 0.4-5.3 0.6-1.4 0.2-2.8 0.4-4.2 0.5-1.7 0.2-3.5 0.5-5.2 0.7-1.4 0.2-2.8 0.4-4.2 0.7l-5.1 0.9c-1.4 0.2-2.8 0.5-4.2 0.7-1.7 0.3-3.4 0.6-5.1 1-1.4 0.3-2.8 0.6-4.2 0.8-1.7 0.4-3.4 0.7-5 1.1-1.4 0.3-2.7 0.6-4.1 0.9-1.7 0.4-3.4 0.8-5 1.2-1.3 0.3-2.7 0.7-4 1-1.7 0.4-3.4 0.9-5.1 1.4-1.3 0.4-2.6 0.7-3.9 1.1-1.7 0.5-3.4 1-5.2 1.5-1.2 0.4-2.5 0.7-3.7 1.1-1.8 0.6-3.6 1.2-5.4 1.7-1.1 0.4-2.3 0.7-3.4 1.1-2.1 0.7-4.1 1.4-6.1 2.2-0.9 0.3-1.7 0.6-2.6 0.9-2.9 1.1-5.7 2.1-8.6 3.3l-1.5 0.6c-2.3 0.9-4.7 1.9-7 2.9-1 0.4-2 0.9-3 1.3l-5.4 2.4c-1.1 0.5-2.3 1-3.4 1.6-1.6 0.8-3.3 1.5-4.9 2.3-1.2 0.6-2.4 1.1-3.5 1.7-1.6 0.8-3.1 1.5-4.7 2.3l-3.6 1.8-4.5 2.4c-1.2 0.6-2.4 1.3-3.6 2-1.5 0.8-2.9 1.6-4.4 2.5l-3.6 2.1c-1.4 0.8-2.9 1.7-4.3 2.5-1.2 0.7-2.3 1.4-3.5 2.1-1.4 0.9-2.8 1.8-4.2 2.6-1.2 0.7-2.3 1.5-3.4 2.2-1.4 0.9-2.8 1.8-4.2 2.8-1.1 0.7-2.2 1.5-3.4 2.3-1.4 0.9-2.8 1.9-4.2 2.9-1.1 0.8-2.2 1.5-3.3 2.3-1.4 1-2.8 2-4.1 3-1.1 0.8-2.1 1.5-3.1 2.3-1.4 1.1-2.8 2.2-4.2 3.2-1 0.8-2 1.5-2.9 2.3-1.5 1.2-3 2.4-4.4 3.6-0.9 0.7-1.8 1.4-2.6 2.1-1.8 1.5-3.5 2.9-5.2 4.4-0.6 0.5-1.1 0.9-1.7 1.4-2.3 2-4.5 4-6.7 6-0.6 0.5-1.1 1.1-1.7 1.6-1.6 1.5-3.3 3-4.9 4.6-0.8 0.8-1.6 1.6-2.4 2.3-1.4 1.3-2.7 2.6-4 4-0.9 0.9-1.7 1.8-2.6 2.7-1.2 1.3-2.5 2.5-3.7 3.8-0.9 0.9-1.8 1.9-2.7 2.8-1.2 1.2-2.3 2.5-3.5 3.7l-2.7 3c-1.1 1.2-2.2 2.5-3.3 3.8-0.9 1-1.8 2-2.6 3.1-1.1 1.3-2.2 2.5-3.2 3.8-0.9 1-1.7 2.1-2.6 3.2-1 1.3-2.1 2.6-3.1 3.9-0.8 1.1-1.7 2.1-2.5 3.2-1 1.3-2 2.6-3 4l-2.4 3.3c-1 1.3-2 2.7-3 4l-2.4 3.3c-1 1.4-1.9 2.8-2.9 4.2-0.8 1.1-1.5 2.2-2.2 3.3-1 1.4-1.9 2.9-2.9 4.3-0.7 1.1-1.4 2.2-2.1 3.2-1 1.5-1.9 3.1-2.9 4.6-0.6 1-1.3 2.1-1.9 3.1l-3 5.1c-0.5 0.9-1.1 1.8-1.6 2.8-1.3 2.2-2.5 4.5-3.8 6.8l-0.6 1.2c-1.4 2.7-2.9 5.3-4.2 8-0.4 0.8-0.8 1.7-1.2 2.5-0.9 1.9-1.9 3.8-2.8 5.7-0.5 1.1-1 2.1-1.5 3.2l-2.4 5.1c-0.5 1.2-1 2.3-1.6 3.5-0.7 1.6-1.4 3.2-2.1 4.9-0.5 1.2-1 2.5-1.5 3.7-0.7 1.6-1.3 3.2-2 4.8-0.5 1.3-1 2.5-1.5 3.8l-1.8 4.8c-0.5 1.3-0.9 2.6-1.4 3.9-0.6 1.6-1.1 3.2-1.7 4.8-0.5 1.3-0.9 2.6-1.3 4-0.5 1.6-1.1 3.2-1.6 4.8-0.4 1.3-0.8 2.7-1.2 4-0.5 1.6-1 3.3-1.5 4.9-0.4 1.3-0.8 2.7-1.1 4-0.5 1.7-0.9 3.3-1.3 5-0.4 1.3-0.7 2.7-1 4l-1.2 5.1c-0.3 1.3-0.6 2.6-0.9 4-0.4 1.8-0.8 3.5-1.1 5.3-0.3 1.3-0.6 2.6-0.8 3.9-0.4 1.9-0.7 3.7-1.1 5.6-0.2 1.2-0.5 2.4-0.7 3.7-0.4 2.1-0.7 4.2-1 6.3-0.2 1-0.3 2-0.5 3-0.5 3.1-0.9 6.2-1.3 9.4 0 0.2 0 0.4-0.1 0.6-0.4 2.8-0.7 5.7-1 8.5-1.4 6.5-2.1 13.2-2.1 20.1v95c0 54.4 44 98.3 98.3 98.3 54.2 0 98.3-44 98.3-98.3v-95c0-54.4-44-98.3-98.3-98.3-7.4 0-14.5 0.8-21.4 2.3 0.6-1.6 1.2-3.2 1.8-4.7 0.1-0.3 0.2-0.6 0.4-0.9 0.9-2.3 1.8-4.5 2.8-6.8 0.3-0.6 0.6-1.3 0.8-1.9 0.7-1.6 1.4-3.3 2.1-4.9 0.3-0.7 0.7-1.5 1-2.2 0.8-1.6 1.5-3.3 2.3-4.9 0.3-0.6 0.6-1.2 0.8-1.8 1.1-2.2 2.1-4.4 3.2-6.5l0.6-1.2c0.9-1.8 1.9-3.5 2.8-5.3 0.4-0.7 0.8-1.4 1.1-2.1 0.8-1.5 1.7-3 2.5-4.5 0.4-0.7 0.8-1.3 1.1-2 1.1-1.9 2.2-3.7 3.3-5.5 0.1-0.2 0.3-0.5 0.4-0.7 1.3-2.1 2.5-4.1 3.8-6.2 0.4-0.6 0.8-1.2 1.1-1.8 1-1.5 1.9-2.9 2.9-4.4 0.4-0.7 0.9-1.3 1.3-2 1-1.5 2-3 3.1-4.4 0.4-0.5 0.7-1 1.1-1.6 1.4-2 2.8-3.9 4.3-5.8 0.3-0.4 0.6-0.7 0.8-1.1 1.2-1.6 2.4-3.1 3.6-4.7 0.5-0.6 1-1.2 1.4-1.8 1.1-1.3 2.1-2.7 3.2-4 0.5-0.6 1-1.2 1.4-1.8 1.4-1.7 2.8-3.3 4.2-5 0.2-0.2 0.3-0.4 0.5-0.6l4.8-5.4c0.5-0.5 1-1 1.4-1.6 1.2-1.3 2.4-2.6 3.6-3.8 0.5-0.6 1.1-1.2 1.7-1.7 1.3-1.3 2.5-2.6 3.8-3.9l1.3-1.3c1.7-1.7 3.4-3.4 5.2-5 0.3-0.3 0.7-0.7 1.1-1 1.4-1.3 2.8-2.7 4.3-4 0.6-0.5 1.2-1.1 1.7-1.6 1.3-1.1 2.6-2.3 3.9-3.4 0.6-0.5 1.1-1 1.7-1.5 1.7-1.4 3.3-2.9 5-4.3 0.2-0.1 0.3-0.3 0.5-0.4 1.9-1.5 3.7-3 5.6-4.5 0.6-0.4 1.1-0.9 1.7-1.3 1.4-1.1 2.8-2.1 4.2-3.2 0.6-0.5 1.3-1 1.9-1.4 1.5-1.1 2.9-2.2 4.4-3.2 0.5-0.4 1-0.7 1.5-1.1 2-1.4 3.9-2.8 5.9-4.1 0.4-0.3 0.8-0.6 1.3-0.8 1.6-1.1 3.2-2.1 4.8-3.2 0.7-0.4 1.3-0.9 2-1.3 1.5-0.9 2.9-1.8 4.4-2.7 0.6-0.4 1.3-0.8 1.9-1.2 1.9-1.2 3.9-2.3 5.8-3.4 0.2-0.1 0.3-0.2 0.5-0.3 2.1-1.2 4.2-2.4 6.3-3.5 0.6-0.3 1.3-0.7 1.9-1 1.5-0.8 3.1-1.6 4.6-2.4 0.7-0.4 1.4-0.7 2.2-1.1 1.6-0.8 3.3-1.7 5-2.5 0.5-0.3 1.1-0.5 1.6-0.8 2.2-1.1 4.4-2.1 6.6-3.1 0.5-0.2 1-0.4 1.4-0.6 1.8-0.8 3.5-1.6 5.3-2.3 0.7-0.3 1.5-0.6 2.2-0.9 1.6-0.7 3.2-1.3 4.8-2 0.7-0.3 1.4-0.6 2.1-0.8 2.2-0.8 4.3-1.7 6.5-2.5 0.1 0 0.2-0.1 0.3-0.1 2.3-0.8 4.6-1.7 6.9-2.4 0.7-0.2 1.4-0.5 2.1-0.7 1.7-0.6 3.4-1.1 5-1.6 0.8-0.2 1.6-0.5 2.3-0.7 1.8-0.6 3.6-1.1 5.4-1.6 0.6-0.2 1.2-0.3 1.7-0.5 2.4-0.7 4.8-1.3 7.2-1.9 0.5-0.1 1.1-0.3 1.6-0.4 1.9-0.5 3.8-0.9 5.7-1.4l2.4-0.6c1.7-0.4 3.5-0.8 5.2-1.1 0.8-0.2 1.5-0.3 2.3-0.5 2.4-0.5 4.8-0.9 7.2-1.4h0.2c2.5-0.4 5-0.8 7.4-1.2 0.8-0.1 1.5-0.2 2.3-0.3 1.8-0.3 3.6-0.5 5.4-0.8 0.8-0.1 1.7-0.2 2.5-0.3 1.9-0.2 3.9-0.5 5.8-0.7 0.6-0.1 1.2-0.1 1.8-0.2 2.5-0.3 5.1-0.5 7.6-0.7 0.6 0 1.2-0.1 1.8-0.1 2-0.1 4-0.3 5.9-0.4 0.8 0 1.7-0.1 2.5-0.1 1.8-0.1 3.7-0.2 5.5-0.2 0.8 0 1.6-0.1 2.4-0.1 2.6-0.1 5.2-0.1 7.8-0.1 142.5 0 263.9 89.7 311 215.7-6.9-1.5-14.1-2.4-21.4-2.4-54.2 0-98.3 44-98.3 98.3v95c0 54.4 44 98.3 98.3 98.3 8.9 0 17.5-1.2 25.6-3.4-36.2 110.1-129.5 195-245.1 219.7-13.6-21-37.3-35-64.2-35-42.2 0-76.5 34.2-76.5 76.5 0 42.2 34.2 76.5 76.5 76.5 37.6 0 68.9-27.2 75.3-63.1C762.4 861 891.1 714.3 899.5 536c0.3-3.1 0.5-6.2 0.5-9.3v-95c-0.1-6.9-0.8-13.7-2.2-20.2z m-675.4-22.1c23.4 0 42.3 18.9 42.3 42.3v95c0 23.3-19 42.3-42.3 42.3-23.4 0-42.3-18.9-42.3-42.3v-74.8c0-10.5 0.5-20.9 1.5-31.2 4.8-18 21.3-31.3 40.8-31.3z m579.2 179.7c-23.4 0-42.3-18.9-42.3-42.3v-95c0-23.3 19-42.3 42.3-42.3 19.6 0 36 13.2 40.9 31.2 1 10.3 1.5 20.7 1.5 31.3v65.6c0 4.8-0.1 9.7-0.3 14.5-2.7 20.7-20.6 37-42.1 37z" fill="#666666" p-id="4066"></path></svg>