<?xml version="1.0" standalone="no"?><!DOCTYPE svg PUBLIC "-//W3C//DTD SVG 1.1//EN" "http://www.w3.org/Graphics/SVG/1.1/DTD/svg11.dtd"><svg t="1582608606206" class="icon" viewBox="0 0 1024 1024" version="1.1" xmlns="http://www.w3.org/2000/svg" p-id="3141" width="32" height="32" xmlns:xlink="http://www.w3.org/1999/xlink"><defs><style type="text/css"></style></defs><path d="M952.832 352.768c-0.064-0.48-0.16-0.928-0.256-1.312-0.384-1.856-0.896-3.648-1.632-5.376L875.936 159.36c-12.992-38.72-50.304-62.464-93.952-62.56L255.488 96.8c-44.224 0-78.592 23.52-91.04 60.704l-80.64 190.528c-0.384 1.12-0.8 2.784-1.152 4.48-5.856 17.984-8.8 36.448-8.8 54.976 0.064 65.152 35.808 124.64 93.248 155.264 0 0 0 0.032 0.032 0.032s0.032 0 0.032 0.032l0 0c0 0 0.032 0 0.032 0.032 23.648 12.608 51.456 19.008 82.784 19.008 52.512-0.16 101.152-23.232 134.304-62.72 32.992 39.168 81.248 62.08 133.664 62.4 52-0.416 100.128-23.424 132.96-62.56 33.152 39.488 81.856 62.464 134.624 62.464 31.936-0.16 60.288-6.88 84.16-19.968 56.576-30.912 91.68-90.176 91.648-154.656C961.44 388.288 958.4 369.696 952.832 352.768zM839.072 505.312c-14.496 7.936-32.576 12-53.6 12.128-38.976 0-74.496-19.776-95.232-53.344-1.472-3.168-3.936-8.416-8.544-13.472-5.28-5.92-14.88-12.928-30.688-12.928-12.736 0-24.288 5.216-30.816 13.216-4.32 4.864-6.688 9.696-8.384 13.216-20.48 33.152-55.712 53.12-93.888 53.408-38.656-0.224-73.984-20.128-94.592-53.536-1.44-2.944-3.84-7.904-7.584-12.096-15.04-17.952-48.704-17.024-61.824-1.376-4.832 5.28-7.36 10.592-8.992 14.208-20.672 33.152-56.224 53.024-95.008 53.152-20.672 0-38.368-3.872-52.64-11.488 0 0-0.032 0-0.032 0 0 0 0 0-0.032 0-36.608-19.488-59.36-57.376-59.392-98.848 0-12.256 2.048-24.608 6.144-36.64 0.288-0.864 0.544-1.824 0.768-2.816l79.424-187.776c1.632-4.8 6.56-19.424 31.264-19.424L782.08 160.896c10.144 0.608 27.616 2.4 33.824 20.672l74.368 185.184c0.288 1.344 0.64 2.624 0.96 3.68 4.128 12.064 6.176 24.32 6.176 36.48C897.472 447.904 875.104 485.6 839.072 505.312zM863.072 608c-17.696 0-32 14.304-32 32l0.064 174.592c0 9.92-8.096 17.984-17.984 18.016L211.072 832.992c-9.92 0-17.984-8-17.984-17.856l-0.224-171.584c-0.032-17.664-14.368-31.936-32-31.936 0 0-0.032 0-0.064 0-17.664 0.032-31.968 14.368-31.936 32.064l0.224 171.488c0 45.12 36.768 81.824 81.984 81.824l602.176-0.384c45.152-0.096 81.888-36.896 81.888-82.048L895.072 640C895.072 622.304 880.736 608 863.072 608zM768 384 256 384c-17.664 0-32-14.336-32-32s14.336-32 32-32l512 0c17.696 0 32 14.336 32 32S785.696 384 768 384z" p-id="3142" fill="#000000"></path></svg>