<?xml version="1.0" standalone="no"?><!DOCTYPE svg PUBLIC "-//W3C//DTD SVG 1.1//EN" "http://www.w3.org/Graphics/SVG/1.1/DTD/svg11.dtd"><svg t="1581644380203" class="icon" viewBox="0 0 1024 1024" version="1.1" xmlns="http://www.w3.org/2000/svg" p-id="2849" xmlns:xlink="http://www.w3.org/1999/xlink" width="48" height="48"><defs><style type="text/css"></style></defs><path d="M940.8 284.8c-16-19.2-38.4-28.8-64-28.8H352c-19.2 0-32 12.8-32 32s12.8 32 32 32h524.8c6.4 0 12.8 3.2 16 6.4s6.4 9.6 3.2 19.2l-48 336c0 9.6-12.8 19.2-25.6 19.2H336c-12.8 0-25.6-16-25.6-28.8L256 300.8l-28.8-156.8C220.8 99.2 182.4 64 134.4 64H96c-19.2 0-32 16-32 32s12.8 32 32 32h38.4c12.8 0 25.6 9.6 28.8 25.6L192 310.4l51.2 371.2C249.6 729.6 288 768 332.8 768h486.4c44.8 0 83.2-32 89.6-73.6L960 355.2c3.2-25.6-3.2-51.2-19.2-70.4zM259.2 896a64 64 0 1 0 127.968 0.032A64 64 0 0 0 259.2 896zM768 896a64 64 0 1 0 127.968 0.032A64 64 0 0 0 768 896z" p-id="2850" fill="#db639b"></path></svg>